ISO-10303-21;
HEADER;
/* Generated by software containing ST-Developer
 * from STEP Tools, Inc. (www.steptools.com) 
 */
/* OPTION: using custom renumber hook */

FILE_DESCRIPTION(
/* description */ ('STEP AP242 Edition 2',
'CAx-IF Rec.Pracs.---Representation and Presentation of Product Manufa
cturing Information (PMI)---4.0---2014-10-13',
'CAx-IF Rec.Pracs.---3D Tessellated Geometry---0.4---2014-09-14','2;1',
'CAx-IF Rec.Pracs.---User Defined Attributes---1.5---2016-08-15'),
/* implementation_level */ '2;1');

FILE_NAME(
/* name */ 'Part Studio 1 - Part 7',
/* time_stamp */ '2026-09-11T06:37:05Z',
/* author */ (''),
/* organization */ (''),
/* preprocessor_version */ 'ST-DEVELOPER v20',
/* originating_system */ 'ONSHAPE BY PTC INC, 1.220',
/* authorisation */ '  ');

FILE_SCHEMA (('AP242_MANAGED_MODEL_BASED_3D_ENGINEERING_MIM_LF { 1 0 10303 442 3 1 4 }'));
ENDSEC;

DATA;
#10=SHAPE_REPRESENTATION_RELATIONSHIP('','',#94,#11);
#11=ADVANCED_BREP_SHAPE_REPRESENTATION('',(#92),#144);
#12=ORIENTED_EDGE('',*,*,#30,.T.);
#13=ORIENTED_EDGE('',*,*,#31,.F.);
#14=ORIENTED_EDGE('',*,*,#32,.T.);
#15=ORIENTED_EDGE('',*,*,#33,.F.);
#16=ORIENTED_EDGE('',*,*,#31,.T.);
#17=ORIENTED_EDGE('',*,*,#34,.T.);
#18=ORIENTED_EDGE('',*,*,#35,.T.);
#19=ORIENTED_EDGE('',*,*,#32,.F.);
#20=ORIENTED_EDGE('',*,*,#33,.T.);
#21=ORIENTED_EDGE('',*,*,#36,.F.);
#22=ORIENTED_EDGE('',*,*,#37,.F.);
#23=ORIENTED_EDGE('',*,*,#30,.F.);
#24=ORIENTED_EDGE('',*,*,#37,.T.);
#25=ORIENTED_EDGE('',*,*,#38,.F.);
#26=ORIENTED_EDGE('',*,*,#34,.F.);
#27=ORIENTED_EDGE('',*,*,#38,.T.);
#28=ORIENTED_EDGE('',*,*,#36,.T.);
#29=ORIENTED_EDGE('',*,*,#35,.F.);
#30=EDGE_CURVE('',#39,#40,#45,.T.);
#31=EDGE_CURVE('',#41,#40,#46,.T.);
#32=EDGE_CURVE('',#41,#39,#47,.T.);
#33=EDGE_CURVE('',#41,#42,#48,.T.);
#34=EDGE_CURVE('',#40,#43,#49,.T.);
#35=EDGE_CURVE('',#43,#42,#50,.T.);
#36=EDGE_CURVE('',#44,#42,#51,.T.);
#37=EDGE_CURVE('',#39,#44,#52,.T.);
#38=EDGE_CURVE('',#43,#44,#53,.T.);
#39=VERTEX_POINT('',#125);
#40=VERTEX_POINT('',#126);
#41=VERTEX_POINT('',#128);
#42=VERTEX_POINT('',#132);
#43=VERTEX_POINT('',#134);
#44=VERTEX_POINT('',#138);
#45=LINE('',#124,#54);
#46=LINE('',#127,#55);
#47=LINE('',#129,#56);
#48=LINE('',#131,#57);
#49=LINE('',#133,#58);
#50=LINE('',#135,#59);
#51=LINE('',#137,#60);
#52=LINE('',#139,#61);
#53=LINE('',#141,#62);
#54=VECTOR('',#105,1.);
#55=VECTOR('',#106,1.);
#56=VECTOR('',#107,1.);
#57=VECTOR('',#110,1.);
#58=VECTOR('',#111,1.);
#59=VECTOR('',#112,1.);
#60=VECTOR('',#115,1.);
#61=VECTOR('',#116,1.);
#62=VECTOR('',#119,1.);
#63=EDGE_LOOP('',(#12,#13,#14));
#64=EDGE_LOOP('',(#15,#16,#17,#18));
#65=EDGE_LOOP('',(#19,#20,#21,#22));
#66=EDGE_LOOP('',(#23,#24,#25,#26));
#67=EDGE_LOOP('',(#27,#28,#29));
#68=FACE_BOUND('',#63,.T.);
#69=FACE_BOUND('',#64,.T.);
#70=FACE_BOUND('',#65,.T.);
#71=FACE_BOUND('',#66,.T.);
#72=FACE_BOUND('',#67,.T.);
#73=PLANE('',#96);
#74=PLANE('',#97);
#75=PLANE('',#98);
#76=PLANE('',#99);
#77=PLANE('',#100);
#78=ADVANCED_FACE('',(#68),#73,.F.);
#79=ADVANCED_FACE('',(#69),#74,.F.);
#80=ADVANCED_FACE('',(#70),#75,.T.);
#81=ADVANCED_FACE('',(#71),#76,.T.);
#82=ADVANCED_FACE('',(#72),#77,.T.);
#83=CLOSED_SHELL('',(#78,#79,#80,#81,#82));
#84=STYLED_ITEM('',(#85),#92);
#85=PRESENTATION_STYLE_ASSIGNMENT((#86));
#86=SURFACE_STYLE_USAGE(.BOTH.,#87);
#87=SURFACE_SIDE_STYLE('',(#88));
#88=SURFACE_STYLE_FILL_AREA(#89);
#89=FILL_AREA_STYLE('',(#90));
#90=FILL_AREA_STYLE_COLOUR('',#91);
#91=COLOUR_RGB('',0.980392156862745,0.713725490196078,0.00392156862745098);
#92=MANIFOLD_SOLID_BREP('Part 7',#83);
#93=SHAPE_DEFINITION_REPRESENTATION(#149,#94);
#94=SHAPE_REPRESENTATION('Part 7',(#95),#144);
#95=AXIS2_PLACEMENT_3D('',#122,#101,#102);
#96=AXIS2_PLACEMENT_3D('',#123,#103,#104);
#97=AXIS2_PLACEMENT_3D('',#130,#108,#109);
#98=AXIS2_PLACEMENT_3D('',#136,#113,#114);
#99=AXIS2_PLACEMENT_3D('',#140,#117,#118);
#100=AXIS2_PLACEMENT_3D('',#142,#120,#121);
#101=DIRECTION('',(0.,0.,1.));
#102=DIRECTION('',(1.,0.,0.));
#103=DIRECTION('',(-1.,0.,0.));
#104=DIRECTION('',(0.,0.,1.));
#105=DIRECTION('',(0.,0.,1.));
#106=DIRECTION('',(0.,0.800467361686349,0.599376344941053));
#107=DIRECTION('',(0.,1.,-7.01481580649956E-16));
#108=DIRECTION('',(7.52788669921185E-17,0.599376344941053,-0.800467361686349));
#109=DIRECTION('',(0.,0.800467361686349,0.599376344941053));
#110=DIRECTION('',(-1.,1.25595325253488E-16,0.));
#111=DIRECTION('',(-1.,1.25595325253488E-16,0.));
#112=DIRECTION('',(-1.00534958645799E-16,-0.800467361686349,-0.599376344941053));
#113=DIRECTION('',(-8.81028072810623E-32,-7.01481580649956E-16,-1.));
#114=DIRECTION('',(0.,1.,-7.01481580649956E-16));
#115=DIRECTION('',(-1.25595325253488E-16,-1.,7.01481580649956E-16));
#116=DIRECTION('',(-1.,1.25595325253488E-16,0.));
#117=DIRECTION('',(1.25595325253488E-16,1.,0.));
#118=DIRECTION('',(-1.,1.25595325253488E-16,0.));
#119=DIRECTION('',(0.,0.,-1.));
#120=DIRECTION('',(-1.,1.25595325253488E-16,0.));
#121=DIRECTION('',(-1.25595325253488E-16,-1.,0.));
#122=CARTESIAN_POINT('',(0.,0.,0.));
#123=CARTESIAN_POINT('',(0.095,-0.0511770390998337,0.0476274647874657));
#124=CARTESIAN_POINT('',(0.095,-0.095,0.009525));
#125=CARTESIAN_POINT('',(0.095,-0.095,0.));
#126=CARTESIAN_POINT('',(0.095,-0.095,0.009525));
#127=CARTESIAN_POINT('',(0.095,-0.055,0.0394763196229935));
#128=CARTESIAN_POINT('',(0.095,-0.107720641520833,6.93889390390723E-18));
#129=CARTESIAN_POINT('',(0.095,-0.101360320760417,4.4616478604578E-18));
#130=CARTESIAN_POINT('',(0.095002,-0.055,0.0394763196229935));
#131=CARTESIAN_POINT('',(0.095002,-0.107720641520833,6.93889390390723E-18));
#132=CARTESIAN_POINT('',(-0.095,-0.107720641520833,6.93889390390723E-18));
#133=CARTESIAN_POINT('',(0.095002,-0.095,0.009525));
#134=CARTESIAN_POINT('',(-0.095,-0.095,0.009525));
#135=CARTESIAN_POINT('',(-0.095,-0.055,0.0394763196229935));
#136=CARTESIAN_POINT('',(0.095002,-0.101360320760417,4.4616478604578E-18));
#137=CARTESIAN_POINT('',(-0.095,-0.101360320760417,4.4616478604578E-18));
#138=CARTESIAN_POINT('',(-0.095,-0.095,0.));
#139=CARTESIAN_POINT('',(0.095002,-0.095,0.));
#140=CARTESIAN_POINT('',(0.095002,-0.095,0.009525));
#141=CARTESIAN_POINT('',(-0.095,-0.095,0.009525));
#142=CARTESIAN_POINT('',(-0.095,-0.0506930476212871,0.0386906176823494));
#143=MECHANICAL_DESIGN_GEOMETRIC_PRESENTATION_REPRESENTATION('',(#84),#144);
#144=(
GEOMETRIC_REPRESENTATION_CONTEXT(3)
GLOBAL_UNCERTAINTY_ASSIGNED_CONTEXT((#145))
GLOBAL_UNIT_ASSIGNED_CONTEXT((#148,#147,#146))
REPRESENTATION_CONTEXT('Part 7','TOP_LEVEL_ASSEMBLY_PART')
);
#145=UNCERTAINTY_MEASURE_WITH_UNIT(LENGTH_MEASURE(1.E-8),#148,
'DISTANCE_ACCURACY_VALUE','Maximum Tolerance applied to model');
#146=(
NAMED_UNIT(*)
SI_UNIT($,.STERADIAN.)
SOLID_ANGLE_UNIT()
);
#147=(
NAMED_UNIT(*)
PLANE_ANGLE_UNIT()
SI_UNIT($,.RADIAN.)
);
#148=(
LENGTH_UNIT()
NAMED_UNIT(*)
SI_UNIT($,.METRE.)
);
#149=PRODUCT_DEFINITION_SHAPE('','',#150);
#150=PRODUCT_DEFINITION('','',#152,#151);
#151=PRODUCT_DEFINITION_CONTEXT('',#158,'design');
#152=PRODUCT_DEFINITION_FORMATION_WITH_SPECIFIED_SOURCE('','',#154,
 .NOT_KNOWN.);
#153=PRODUCT_RELATED_PRODUCT_CATEGORY('','',(#154));
#154=PRODUCT('Part 7','Part 7','Part 7',(#156));
#155=PRODUCT_CATEGORY('','');
#156=PRODUCT_CONTEXT('',#158,'mechanical');
#157=APPLICATION_PROTOCOL_DEFINITION('international standard',
'ap242_managed_model_based_3d_engineering',2020,#158);
#158=APPLICATION_CONTEXT('managed model based 3d engineering');
ENDSEC;
END-ISO-10303-21;
