ISO-10303-21;
HEADER;
/* Generated by software containing ST-Developer
 * from STEP Tools, Inc. (www.steptools.com) 
 */
/* OPTION: using custom renumber hook */

FILE_DESCRIPTION(
/* description */ ('STEP AP242 Edition 2',
'CAx-IF Rec.Pracs.---Representation and Presentation of Product Manufa
cturing Information (PMI)---4.0---2014-10-13',
'CAx-IF Rec.Pracs.---3D Tessellated Geometry---0.4---2014-09-14','2;1',
'CAx-IF Rec.Pracs.---User Defined Attributes---1.5---2016-08-15'),
/* implementation_level */ '2;1');

FILE_NAME(
/* name */ 'Part Studio 1 - Part 9',
/* time_stamp */ '2026-09-11T06:37:05Z',
/* author */ (''),
/* organization */ (''),
/* preprocessor_version */ 'ST-DEVELOPER v20',
/* originating_system */ 'ONSHAPE BY PTC INC, 1.220',
/* authorisation */ '  ');

FILE_SCHEMA (('AP242_MANAGED_MODEL_BASED_3D_ENGINEERING_MIM_LF { 1 0 10303 442 3 1 4 }'));
ENDSEC;

DATA;
#10=SHAPE_REPRESENTATION_RELATIONSHIP('','',#132,#11);
#11=ADVANCED_BREP_SHAPE_REPRESENTATION('',(#130),#216);
#12=CYLINDRICAL_SURFACE('',#136,0.0124905888030971);
#13=B_SPLINE_SURFACE_WITH_KNOTS('',3,1,((#185,#186),(#187,#188),(#189,#190),
(#191,#192)),.SURF_OF_LINEAR_EXTRUSION.,.F.,.F.,.F.,(4,4),(2,2),(0.,1.),
(0.,1.),.PIECEWISE_BEZIER_KNOTS.);
#14=CIRCLE('',#135,0.0124905888030971);
#15=CIRCLE('',#137,0.0124905888030971);
#16=B_SPLINE_CURVE_WITH_KNOTS('',2,(#178,#179,#180),.UNSPECIFIED.,.F.,.F.,
(3,3),(0.,1.),.PIECEWISE_BEZIER_KNOTS.);
#17=B_SPLINE_CURVE_WITH_KNOTS('',2,(#193,#194,#195),.UNSPECIFIED.,.F.,.F.,
(3,3),(0.,1.),.PIECEWISE_BEZIER_KNOTS.);
#18=ORIENTED_EDGE('',*,*,#48,.T.);
#19=ORIENTED_EDGE('',*,*,#49,.T.);
#20=ORIENTED_EDGE('',*,*,#50,.T.);
#21=ORIENTED_EDGE('',*,*,#51,.T.);
#22=ORIENTED_EDGE('',*,*,#52,.T.);
#23=ORIENTED_EDGE('',*,*,#53,.T.);
#24=ORIENTED_EDGE('',*,*,#54,.T.);
#25=ORIENTED_EDGE('',*,*,#50,.F.);
#26=ORIENTED_EDGE('',*,*,#55,.F.);
#27=ORIENTED_EDGE('',*,*,#56,.T.);
#28=ORIENTED_EDGE('',*,*,#57,.T.);
#29=ORIENTED_EDGE('',*,*,#51,.F.);
#30=ORIENTED_EDGE('',*,*,#54,.F.);
#31=ORIENTED_EDGE('',*,*,#58,.T.);
#32=ORIENTED_EDGE('',*,*,#59,.T.);
#33=ORIENTED_EDGE('',*,*,#52,.F.);
#34=ORIENTED_EDGE('',*,*,#57,.F.);
#35=ORIENTED_EDGE('',*,*,#60,.T.);
#36=ORIENTED_EDGE('',*,*,#61,.T.);
#37=ORIENTED_EDGE('',*,*,#48,.F.);
#38=ORIENTED_EDGE('',*,*,#59,.F.);
#39=ORIENTED_EDGE('',*,*,#62,.T.);
#40=ORIENTED_EDGE('',*,*,#55,.T.);
#41=ORIENTED_EDGE('',*,*,#49,.F.);
#42=ORIENTED_EDGE('',*,*,#61,.F.);
#43=ORIENTED_EDGE('',*,*,#62,.F.);
#44=ORIENTED_EDGE('',*,*,#60,.F.);
#45=ORIENTED_EDGE('',*,*,#58,.F.);
#46=ORIENTED_EDGE('',*,*,#56,.F.);
#47=ORIENTED_EDGE('',*,*,#53,.F.);
#48=EDGE_CURVE('',#63,#64,#73,.T.);
#49=EDGE_CURVE('',#64,#65,#74,.T.);
#50=EDGE_CURVE('',#65,#66,#16,.T.);
#51=EDGE_CURVE('',#66,#67,#14,.F.);
#52=EDGE_CURVE('',#67,#63,#75,.T.);
#53=EDGE_CURVE('',#68,#69,#17,.T.);
#54=EDGE_CURVE('',#69,#66,#76,.T.);
#55=EDGE_CURVE('',#68,#65,#77,.T.);
#56=EDGE_CURVE('',#69,#70,#15,.F.);
#57=EDGE_CURVE('',#70,#67,#78,.T.);
#58=EDGE_CURVE('',#70,#71,#79,.T.);
#59=EDGE_CURVE('',#71,#63,#80,.T.);
#60=EDGE_CURVE('',#71,#72,#81,.T.);
#61=EDGE_CURVE('',#72,#64,#82,.T.);
#62=EDGE_CURVE('',#72,#68,#83,.T.);
#63=VERTEX_POINT('',#174);
#64=VERTEX_POINT('',#175);
#65=VERTEX_POINT('',#177);
#66=VERTEX_POINT('',#181);
#67=VERTEX_POINT('',#183);
#68=VERTEX_POINT('',#196);
#69=VERTEX_POINT('',#197);
#70=VERTEX_POINT('',#202);
#71=VERTEX_POINT('',#206);
#72=VERTEX_POINT('',#210);
#73=LINE('',#173,#84);
#74=LINE('',#176,#85);
#75=LINE('',#184,#86);
#76=LINE('',#198,#87);
#77=LINE('',#199,#88);
#78=LINE('',#203,#89);
#79=LINE('',#205,#90);
#80=LINE('',#207,#91);
#81=LINE('',#209,#92);
#82=LINE('',#211,#93);
#83=LINE('',#213,#94);
#84=VECTOR('',#146,1.);
#85=VECTOR('',#147,1.);
#86=VECTOR('',#150,1.);
#87=VECTOR('',#151,1.);
#88=VECTOR('',#152,1.);
#89=VECTOR('',#157,1.);
#90=VECTOR('',#160,1.);
#91=VECTOR('',#161,1.);
#92=VECTOR('',#164,1.);
#93=VECTOR('',#165,1.);
#94=VECTOR('',#168,1.);
#95=EDGE_LOOP('',(#18,#19,#20,#21,#22));
#96=EDGE_LOOP('',(#23,#24,#25,#26));
#97=EDGE_LOOP('',(#27,#28,#29,#30));
#98=EDGE_LOOP('',(#31,#32,#33,#34));
#99=EDGE_LOOP('',(#35,#36,#37,#38));
#100=EDGE_LOOP('',(#39,#40,#41,#42));
#101=EDGE_LOOP('',(#43,#44,#45,#46,#47));
#102=FACE_BOUND('',#95,.T.);
#103=FACE_BOUND('',#96,.T.);
#104=FACE_BOUND('',#97,.T.);
#105=FACE_BOUND('',#98,.T.);
#106=FACE_BOUND('',#99,.T.);
#107=FACE_BOUND('',#100,.T.);
#108=FACE_BOUND('',#101,.T.);
#109=PLANE('',#134);
#110=PLANE('',#138);
#111=PLANE('',#139);
#112=PLANE('',#140);
#113=PLANE('',#141);
#114=ADVANCED_FACE('',(#102),#109,.T.);
#115=ADVANCED_FACE('',(#103),#13,.T.);
#116=ADVANCED_FACE('',(#104),#12,.F.);
#117=ADVANCED_FACE('',(#105),#110,.T.);
#118=ADVANCED_FACE('',(#106),#111,.T.);
#119=ADVANCED_FACE('',(#107),#112,.T.);
#120=ADVANCED_FACE('',(#108),#113,.F.);
#121=CLOSED_SHELL('',(#114,#115,#116,#117,#118,#119,#120));
#122=STYLED_ITEM('',(#123),#130);
#123=PRESENTATION_STYLE_ASSIGNMENT((#124));
#124=SURFACE_STYLE_USAGE(.BOTH.,#125);
#125=SURFACE_SIDE_STYLE('',(#126));
#126=SURFACE_STYLE_FILL_AREA(#127);
#127=FILL_AREA_STYLE('',(#128));
#128=FILL_AREA_STYLE_COLOUR('',#129);
#129=COLOUR_RGB('',0.917647058823529,0.917647058823529,0.917647058823529);
#130=MANIFOLD_SOLID_BREP('Part 9',#121);
#131=SHAPE_DEFINITION_REPRESENTATION(#221,#132);
#132=SHAPE_REPRESENTATION('Part 9',(#133),#216);
#133=AXIS2_PLACEMENT_3D('',#171,#142,#143);
#134=AXIS2_PLACEMENT_3D('',#172,#144,#145);
#135=AXIS2_PLACEMENT_3D('',#182,#148,#149);
#136=AXIS2_PLACEMENT_3D('',#200,#153,#154);
#137=AXIS2_PLACEMENT_3D('',#201,#155,#156);
#138=AXIS2_PLACEMENT_3D('',#204,#158,#159);
#139=AXIS2_PLACEMENT_3D('',#208,#162,#163);
#140=AXIS2_PLACEMENT_3D('',#212,#166,#167);
#141=AXIS2_PLACEMENT_3D('',#214,#169,#170);
#142=DIRECTION('',(0.,0.,1.));
#143=DIRECTION('',(1.,0.,0.));
#144=DIRECTION('',(1.,-1.25595325253488E-16,0.));
#145=DIRECTION('',(1.25595325253488E-16,1.,0.));
#146=DIRECTION('',(1.25595325253488E-16,1.,0.));
#147=DIRECTION('',(-4.41722483014961E-17,-0.351702965156892,0.936111651620601));
#148=DIRECTION('',(1.,-1.25595325253488E-16,0.));
#149=DIRECTION('',(1.25595325253488E-16,1.,0.));
#150=DIRECTION('',(-4.45354135521797E-17,-0.354594515857132,-0.935020175891433));
#151=DIRECTION('',(1.,-1.25595325253488E-16,0.));
#152=DIRECTION('',(1.,-1.25595325253488E-16,0.));
#153=DIRECTION('',(1.,-1.25595325253488E-16,0.));
#154=DIRECTION('',(0.,0.958684081919035,-0.284472900422971));
#155=DIRECTION('',(1.,-1.25595325253488E-16,0.));
#156=DIRECTION('',(1.25595325253488E-16,1.,0.));
#157=DIRECTION('',(1.,-1.25595325253488E-16,0.));
#158=DIRECTION('',(-1.17434163109658E-16,-0.935020175891433,0.354594515857132));
#159=DIRECTION('',(0.,-0.354594515857132,-0.935020175891433));
#160=DIRECTION('',(-4.45354135521797E-17,-0.354594515857132,-0.935020175891433));
#161=DIRECTION('',(1.,-1.25595325253488E-16,0.));
#162=DIRECTION('',(0.,0.,-1.));
#163=DIRECTION('',(-1.,0.,0.));
#164=DIRECTION('',(1.25595325253488E-16,1.,0.));
#165=DIRECTION('',(1.,-1.25595325253488E-16,0.));
#166=DIRECTION('',(1.17571247358869E-16,0.936111651620601,0.351702965156892));
#167=DIRECTION('',(0.,-0.351702965156892,0.936111651620601));
#168=DIRECTION('',(-4.41722483014961E-17,-0.351702965156892,0.936111651620601));
#169=DIRECTION('',(1.,-1.25595325253488E-16,0.));
#170=DIRECTION('',(1.25595325253488E-16,1.,0.));
#171=CARTESIAN_POINT('',(0.,0.,0.));
#172=CARTESIAN_POINT('',(0.095,1.94623190873308E-18,0.0299125348574601));
#173=CARTESIAN_POINT('',(0.095,-0.0491864856291816,0.0222096163564369));
#174=CARTESIAN_POINT('',(0.095,-0.0507285171430758,0.0222096163564369));
#175=CARTESIAN_POINT('',(0.095,-0.0476444541152874,0.0222096163564369));
#176=CARTESIAN_POINT('',(0.095,-0.0481995019944428,0.0236869618393016));
#177=CARTESIAN_POINT('',(0.095,-0.0487545498735982,0.0251643073221665));
#178=CARTESIAN_POINT('',(0.095,-0.0487545498735982,0.0251643073221665));
#179=CARTESIAN_POINT('',(0.095,-0.0489694744283088,0.0257256151398086));
#180=CARTESIAN_POINT('',(0.095,-0.0491969188599928,0.0265394071430816));
#181=CARTESIAN_POINT('',(0.095,-0.0491969188599928,0.0265394071430816));
#182=CARTESIAN_POINT('',(0.095,-0.0613462347013406,0.0294358783582367));
#183=CARTESIAN_POINT('',(0.09499999975,-0.0496083256139633,0.0251644301245285));
#184=CARTESIAN_POINT('',(0.095,-0.0501682526485148,0.0236869618393016));
#185=CARTESIAN_POINT('',(0.085475,-0.0487545498735982,0.0251643073221665));
#186=CARTESIAN_POINT('',(0.095,-0.0487545498735982,0.0251643073221665));
#187=CARTESIAN_POINT('',(0.085475,-0.0488978329100719,0.0255385125339279));
#188=CARTESIAN_POINT('',(0.095,-0.0488978329100719,0.0255385125339279));
#189=CARTESIAN_POINT('',(0.085475,-0.0490452892388701,0.0259968791408996));
#190=CARTESIAN_POINT('',(0.095,-0.0490452892388701,0.0259968791408996));
#191=CARTESIAN_POINT('',(0.085475,-0.0491969188599928,0.0265394071430816));
#192=CARTESIAN_POINT('',(0.095,-0.0491969188599928,0.0265394071430816));
#193=CARTESIAN_POINT('',(0.085475,-0.0487545498735982,0.0251643073221665));
#194=CARTESIAN_POINT('',(0.085475,-0.0489694744283088,0.0257256151398086));
#195=CARTESIAN_POINT('',(0.085475,-0.0491969188599928,0.0265394071430816));
#196=CARTESIAN_POINT('',(0.085475,-0.0487545498735982,0.0251643073221665));
#197=CARTESIAN_POINT('',(0.085475,-0.0491969188599928,0.0265394071430816));
#198=CARTESIAN_POINT('',(0.07,-0.0491969188599928,0.0265394071430816));
#199=CARTESIAN_POINT('',(0.07,-0.0487545498735982,0.0251643073221665));
#200=CARTESIAN_POINT('',(0.0700000000000011,-0.0613462347013406,0.0294358783582367));
#201=CARTESIAN_POINT('',(0.085475,-0.0613462347013406,0.0294358783582367));
#202=CARTESIAN_POINT('',(0.085475,-0.0496083256139633,0.0251644301245285));
#203=CARTESIAN_POINT('',(0.07,-0.0496079881539537,0.0251643073221665));
#204=CARTESIAN_POINT('',(0.07,-0.0501682526485148,0.0236869618393016));
#205=CARTESIAN_POINT('',(0.085475,-0.0417961259095009,0.0457631843019529));
#206=CARTESIAN_POINT('',(0.085475,-0.0507285171430758,0.0222096163564369));
#207=CARTESIAN_POINT('',(0.07,-0.0507285171430758,0.0222096163564369));
#208=CARTESIAN_POINT('',(0.07,-0.0491864856291816,0.0222096163564369));
#209=CARTESIAN_POINT('',(0.085475,3.14252738177255E-18,0.0222096163564369));
#210=CARTESIAN_POINT('',(0.085475,-0.0476444541152874,0.0222096163564369));
#211=CARTESIAN_POINT('',(0.07,-0.0476444541152874,0.0222096163564369));
#212=CARTESIAN_POINT('',(0.07,-0.0481995019944428,0.0236869618393016));
#213=CARTESIAN_POINT('',(0.085475,-0.0442871313644734,0.0132735843730675));
#214=CARTESIAN_POINT('',(0.085475,3.14252738177255E-18,0.0299125348574601));
#215=MECHANICAL_DESIGN_GEOMETRIC_PRESENTATION_REPRESENTATION('',(#122),
#216);
#216=(
GEOMETRIC_REPRESENTATION_CONTEXT(3)
GLOBAL_UNCERTAINTY_ASSIGNED_CONTEXT((#217))
GLOBAL_UNIT_ASSIGNED_CONTEXT((#220,#219,#218))
REPRESENTATION_CONTEXT('Part 9','TOP_LEVEL_ASSEMBLY_PART')
);
#217=UNCERTAINTY_MEASURE_WITH_UNIT(LENGTH_MEASURE(2.E-5),#220,
'DISTANCE_ACCURACY_VALUE','Maximum Tolerance applied to model');
#218=(
NAMED_UNIT(*)
SI_UNIT($,.STERADIAN.)
SOLID_ANGLE_UNIT()
);
#219=(
NAMED_UNIT(*)
PLANE_ANGLE_UNIT()
SI_UNIT($,.RADIAN.)
);
#220=(
LENGTH_UNIT()
NAMED_UNIT(*)
SI_UNIT($,.METRE.)
);
#221=PRODUCT_DEFINITION_SHAPE('','',#222);
#222=PRODUCT_DEFINITION('','',#224,#223);
#223=PRODUCT_DEFINITION_CONTEXT('',#230,'design');
#224=PRODUCT_DEFINITION_FORMATION_WITH_SPECIFIED_SOURCE('','',#226,
 .NOT_KNOWN.);
#225=PRODUCT_RELATED_PRODUCT_CATEGORY('','',(#226));
#226=PRODUCT('Part 9','Part 9','Part 9',(#228));
#227=PRODUCT_CATEGORY('','');
#228=PRODUCT_CONTEXT('',#230,'mechanical');
#229=APPLICATION_PROTOCOL_DEFINITION('international standard',
'ap242_managed_model_based_3d_engineering',2020,#230);
#230=APPLICATION_CONTEXT('managed model based 3d engineering');
ENDSEC;
END-ISO-10303-21;
