ISO-10303-21;
HEADER;
/* Generated by software containing ST-Developer
 * from STEP Tools, Inc. (www.steptools.com) 
 */
/* OPTION: using custom renumber hook */

FILE_DESCRIPTION(
/* description */ ('STEP AP242 Edition 2',
'CAx-IF Rec.Pracs.---Representation and Presentation of Product Manufa
cturing Information (PMI)---4.0---2014-10-13',
'CAx-IF Rec.Pracs.---3D Tessellated Geometry---0.4---2014-09-14','2;1',
'CAx-IF Rec.Pracs.---User Defined Attributes---1.5---2016-08-15'),
/* implementation_level */ '2;1');

FILE_NAME(
/* name */ 'Part Studio 1 - Part 5',
/* time_stamp */ '2026-09-11T06:37:05Z',
/* author */ (''),
/* organization */ (''),
/* preprocessor_version */ 'ST-DEVELOPER v20',
/* originating_system */ 'ONSHAPE BY PTC INC, 1.220',
/* authorisation */ '  ');

FILE_SCHEMA (('AP242_MANAGED_MODEL_BASED_3D_ENGINEERING_MIM_LF { 1 0 10303 442 3 1 4 }'));
ENDSEC;

DATA;
#10=SHAPE_REPRESENTATION_RELATIONSHIP('','',#171,#11);
#11=ADVANCED_BREP_SHAPE_REPRESENTATION('',(#169),#277);
#12=CYLINDRICAL_SURFACE('',#181,0.0475);
#13=CYLINDRICAL_SURFACE('',#184,0.0475);
#14=CIRCLE('',#176,0.0475);
#15=CIRCLE('',#177,0.0475);
#16=CIRCLE('',#182,0.0475);
#17=CIRCLE('',#185,0.0475);
#18=ORIENTED_EDGE('',*,*,#58,.F.);
#19=ORIENTED_EDGE('',*,*,#59,.T.);
#20=ORIENTED_EDGE('',*,*,#60,.T.);
#21=ORIENTED_EDGE('',*,*,#61,.F.);
#22=ORIENTED_EDGE('',*,*,#62,.F.);
#23=ORIENTED_EDGE('',*,*,#63,.F.);
#24=ORIENTED_EDGE('',*,*,#64,.F.);
#25=ORIENTED_EDGE('',*,*,#65,.T.);
#26=ORIENTED_EDGE('',*,*,#61,.T.);
#27=ORIENTED_EDGE('',*,*,#66,.T.);
#28=ORIENTED_EDGE('',*,*,#67,.F.);
#29=ORIENTED_EDGE('',*,*,#68,.F.);
#30=ORIENTED_EDGE('',*,*,#64,.T.);
#31=ORIENTED_EDGE('',*,*,#69,.T.);
#32=ORIENTED_EDGE('',*,*,#70,.F.);
#33=ORIENTED_EDGE('',*,*,#71,.F.);
#34=ORIENTED_EDGE('',*,*,#72,.F.);
#35=ORIENTED_EDGE('',*,*,#59,.F.);
#36=ORIENTED_EDGE('',*,*,#73,.F.);
#37=ORIENTED_EDGE('',*,*,#70,.T.);
#38=ORIENTED_EDGE('',*,*,#66,.F.);
#39=ORIENTED_EDGE('',*,*,#60,.F.);
#40=ORIENTED_EDGE('',*,*,#72,.T.);
#41=ORIENTED_EDGE('',*,*,#74,.F.);
#42=ORIENTED_EDGE('',*,*,#63,.T.);
#43=ORIENTED_EDGE('',*,*,#74,.T.);
#44=ORIENTED_EDGE('',*,*,#71,.T.);
#45=ORIENTED_EDGE('',*,*,#69,.F.);
#46=ORIENTED_EDGE('',*,*,#68,.T.);
#47=ORIENTED_EDGE('',*,*,#75,.F.);
#48=ORIENTED_EDGE('',*,*,#76,.F.);
#49=ORIENTED_EDGE('',*,*,#65,.F.);
#50=ORIENTED_EDGE('',*,*,#62,.T.);
#51=ORIENTED_EDGE('',*,*,#76,.T.);
#52=ORIENTED_EDGE('',*,*,#67,.T.);
#53=ORIENTED_EDGE('',*,*,#73,.T.);
#54=ORIENTED_EDGE('',*,*,#77,.F.);
#55=ORIENTED_EDGE('',*,*,#75,.T.);
#56=ORIENTED_EDGE('',*,*,#58,.T.);
#57=ORIENTED_EDGE('',*,*,#77,.T.);
#58=EDGE_CURVE('',#78,#79,#90,.T.);
#59=EDGE_CURVE('',#78,#80,#91,.T.);
#60=EDGE_CURVE('',#80,#81,#92,.T.);
#61=EDGE_CURVE('',#82,#81,#93,.T.);
#62=EDGE_CURVE('',#79,#82,#94,.T.);
#63=EDGE_CURVE('',#83,#84,#95,.T.);
#64=EDGE_CURVE('',#85,#83,#96,.T.);
#65=EDGE_CURVE('',#85,#82,#97,.T.);
#66=EDGE_CURVE('',#81,#84,#98,.T.);
#67=EDGE_CURVE('',#86,#87,#14,.T.);
#68=EDGE_CURVE('',#85,#86,#15,.T.);
#69=EDGE_CURVE('',#83,#88,#99,.T.);
#70=EDGE_CURVE('',#87,#88,#100,.T.);
#71=EDGE_CURVE('',#89,#88,#101,.T.);
#72=EDGE_CURVE('',#80,#89,#102,.T.);
#73=EDGE_CURVE('',#87,#78,#103,.T.);
#74=EDGE_CURVE('',#84,#89,#104,.T.);
#75=EDGE_CURVE('',#79,#86,#105,.T.);
#76=EDGE_CURVE('',#82,#79,#16,.T.);
#77=EDGE_CURVE('',#79,#78,#17,.T.);
#78=VERTEX_POINT('',#236);
#79=VERTEX_POINT('',#237);
#80=VERTEX_POINT('',#239);
#81=VERTEX_POINT('',#241);
#82=VERTEX_POINT('',#243);
#83=VERTEX_POINT('',#247);
#84=VERTEX_POINT('',#248);
#85=VERTEX_POINT('',#250);
#86=VERTEX_POINT('',#255);
#87=VERTEX_POINT('',#256);
#88=VERTEX_POINT('',#259);
#89=VERTEX_POINT('',#263);
#90=LINE('',#235,#106);
#91=LINE('',#238,#107);
#92=LINE('',#240,#108);
#93=LINE('',#242,#109);
#94=LINE('',#244,#110);
#95=LINE('',#246,#111);
#96=LINE('',#249,#112);
#97=LINE('',#251,#113);
#98=LINE('',#252,#114);
#99=LINE('',#258,#115);
#100=LINE('',#260,#116);
#101=LINE('',#262,#117);
#102=LINE('',#264,#118);
#103=LINE('',#265,#119);
#104=LINE('',#267,#120);
#105=LINE('',#270,#121);
#106=VECTOR('',#191,1.);
#107=VECTOR('',#192,1.);
#108=VECTOR('',#193,1.);
#109=VECTOR('',#194,1.);
#110=VECTOR('',#195,1.);
#111=VECTOR('',#198,1.);
#112=VECTOR('',#199,1.);
#113=VECTOR('',#200,1.);
#114=VECTOR('',#201,1.);
#115=VECTOR('',#208,1.);
#116=VECTOR('',#209,1.);
#117=VECTOR('',#212,1.);
#118=VECTOR('',#213,1.);
#119=VECTOR('',#214,1.);
#120=VECTOR('',#217,1.);
#121=VECTOR('',#222,1.);
#122=EDGE_LOOP('',(#18,#19,#20,#21,#22));
#123=EDGE_LOOP('',(#23,#24,#25,#26,#27));
#124=EDGE_LOOP('',(#28,#29,#30,#31,#32));
#125=EDGE_LOOP('',(#33,#34,#35,#36,#37));
#126=EDGE_LOOP('',(#38,#39,#40,#41));
#127=EDGE_LOOP('',(#42,#43,#44,#45));
#128=EDGE_LOOP('',(#46,#47,#48,#49));
#129=EDGE_LOOP('',(#50,#51));
#130=EDGE_LOOP('',(#52,#53,#54,#55));
#131=EDGE_LOOP('',(#56,#57));
#132=FACE_BOUND('',#122,.T.);
#133=FACE_BOUND('',#123,.T.);
#134=FACE_BOUND('',#124,.T.);
#135=FACE_BOUND('',#125,.T.);
#136=FACE_BOUND('',#126,.T.);
#137=FACE_BOUND('',#127,.T.);
#138=FACE_BOUND('',#128,.T.);
#139=FACE_BOUND('',#129,.T.);
#140=FACE_BOUND('',#130,.T.);
#141=FACE_BOUND('',#131,.T.);
#142=PLANE('',#173);
#143=PLANE('',#174);
#144=PLANE('',#175);
#145=PLANE('',#178);
#146=PLANE('',#179);
#147=PLANE('',#180);
#148=PLANE('',#183);
#149=PLANE('',#186);
#150=ADVANCED_FACE('',(#132),#142,.F.);
#151=ADVANCED_FACE('',(#133),#143,.F.);
#152=ADVANCED_FACE('',(#134),#144,.T.);
#153=ADVANCED_FACE('',(#135),#145,.T.);
#154=ADVANCED_FACE('',(#136),#146,.F.);
#155=ADVANCED_FACE('',(#137),#147,.F.);
#156=ADVANCED_FACE('',(#138),#12,.F.);
#157=ADVANCED_FACE('',(#139),#148,.T.);
#158=ADVANCED_FACE('',(#140),#13,.F.);
#159=ADVANCED_FACE('',(#141),#149,.T.);
#160=CLOSED_SHELL('',(#150,#151,#152,#153,#154,#155,#156,#157,#158,#159));
#161=STYLED_ITEM('',(#162),#169);
#162=PRESENTATION_STYLE_ASSIGNMENT((#163));
#163=SURFACE_STYLE_USAGE(.BOTH.,#164);
#164=SURFACE_SIDE_STYLE('',(#165));
#165=SURFACE_STYLE_FILL_AREA(#166);
#166=FILL_AREA_STYLE('',(#167));
#167=FILL_AREA_STYLE_COLOUR('',#168);
#168=COLOUR_RGB('',0.768627450980392,0.886274509803922,0.952941176470588);
#169=MANIFOLD_SOLID_BREP('Part 5',#160);
#170=SHAPE_DEFINITION_REPRESENTATION(#282,#171);
#171=SHAPE_REPRESENTATION('Part 5',(#172),#277);
#172=AXIS2_PLACEMENT_3D('',#233,#187,#188);
#173=AXIS2_PLACEMENT_3D('',#234,#189,#190);
#174=AXIS2_PLACEMENT_3D('',#245,#196,#197);
#175=AXIS2_PLACEMENT_3D('',#253,#202,#203);
#176=AXIS2_PLACEMENT_3D('',#254,#204,#205);
#177=AXIS2_PLACEMENT_3D('',#257,#206,#207);
#178=AXIS2_PLACEMENT_3D('',#261,#210,#211);
#179=AXIS2_PLACEMENT_3D('',#266,#215,#216);
#180=AXIS2_PLACEMENT_3D('',#268,#218,#219);
#181=AXIS2_PLACEMENT_3D('',#269,#220,#221);
#182=AXIS2_PLACEMENT_3D('',#271,#223,#224);
#183=AXIS2_PLACEMENT_3D('',#272,#225,#226);
#184=AXIS2_PLACEMENT_3D('',#273,#227,#228);
#185=AXIS2_PLACEMENT_3D('',#274,#229,#230);
#186=AXIS2_PLACEMENT_3D('',#275,#231,#232);
#187=DIRECTION('',(0.,0.,1.));
#188=DIRECTION('',(1.,0.,0.));
#189=DIRECTION('',(0.,-1.,0.));
#190=DIRECTION('',(0.,0.,-1.));
#191=DIRECTION('',(-1.,0.,0.));
#192=DIRECTION('',(0.,0.,-1.));
#193=DIRECTION('',(-1.,0.,0.));
#194=DIRECTION('',(0.,0.,-1.));
#195=DIRECTION('',(-1.,0.,0.));
#196=DIRECTION('',(1.,0.,0.));
#197=DIRECTION('',(0.,0.,-1.));
#198=DIRECTION('',(0.,-0.800467361686349,-0.599376344941053));
#199=DIRECTION('',(0.,-1.,0.));
#200=DIRECTION('',(0.,0.,-1.));
#201=DIRECTION('',(0.,-1.,0.));
#202=DIRECTION('',(0.,0.,1.));
#203=DIRECTION('',(1.,0.,0.));
#204=DIRECTION('',(0.,0.,1.));
#205=DIRECTION('',(1.,0.,0.));
#206=DIRECTION('',(0.,0.,1.));
#207=DIRECTION('',(1.,0.,0.));
#208=DIRECTION('',(1.,0.,0.));
#209=DIRECTION('',(0.,-1.,0.));
#210=DIRECTION('',(1.,0.,0.));
#211=DIRECTION('',(0.,0.,-1.));
#212=DIRECTION('',(0.,0.800467361686349,0.599376344941053));
#213=DIRECTION('',(0.,-1.,0.));
#214=DIRECTION('',(0.,0.,-1.));
#215=DIRECTION('',(0.,0.,1.));
#216=DIRECTION('',(1.,0.,0.));
#217=DIRECTION('',(1.,0.,0.));
#218=DIRECTION('',(0.,0.599376344941053,-0.800467361686349));
#219=DIRECTION('',(0.,0.800467361686349,0.599376344941053));
#220=DIRECTION('',(0.,0.,1.));
#221=DIRECTION('',(1.,0.,0.));
#222=DIRECTION('',(0.,0.,1.));
#223=DIRECTION('',(0.,0.,1.));
#224=DIRECTION('',(1.,0.,0.));
#225=DIRECTION('',(0.,0.,1.));
#226=DIRECTION('',(1.,0.,0.));
#227=DIRECTION('',(0.,0.,1.));
#228=DIRECTION('',(1.,0.,0.));
#229=DIRECTION('',(0.,0.,1.));
#230=DIRECTION('',(1.,0.,0.));
#231=DIRECTION('',(0.,0.,1.));
#232=DIRECTION('',(1.,0.,0.));
#233=CARTESIAN_POINT('',(0.,0.,0.));
#234=CARTESIAN_POINT('',(1.38777878078145E-17,0.104525,0.0789526392459869));
#235=CARTESIAN_POINT('',(1.38777878078145E-17,0.104525,0.0769526392459869));
#236=CARTESIAN_POINT('',(0.095,0.104525,0.0769526392459869));
#237=CARTESIAN_POINT('',(0.,0.104525,0.0769526392459869));
#238=CARTESIAN_POINT('',(0.095,0.104525,0.0789526392459869));
#239=CARTESIAN_POINT('',(0.095,0.104525,0.0694276392459869));
#240=CARTESIAN_POINT('',(1.38777878078145E-17,0.104525,0.0694276392459869));
#241=CARTESIAN_POINT('',(-0.095,0.104525,0.0694276392459869));
#242=CARTESIAN_POINT('',(-0.095,0.104525,0.0789526392459869));
#243=CARTESIAN_POINT('',(-0.095,0.104525,0.0769526392459869));
#244=CARTESIAN_POINT('',(1.38777878078145E-17,0.104525,0.0769526392459869));
#245=CARTESIAN_POINT('',(-0.095,0.104525,0.0789526392459869));
#246=CARTESIAN_POINT('',(-0.095,-0.0486396792395833,0.0442388196229935));
#247=CARTESIAN_POINT('',(-0.095,-0.00227935847916654,0.078952639245987));
#248=CARTESIAN_POINT('',(-0.095,-0.015,0.0694276392459869));
#249=CARTESIAN_POINT('',(-0.095,0.104525,0.0789526392459869));
#250=CARTESIAN_POINT('',(-0.095,0.104525,0.0789526392459869));
#251=CARTESIAN_POINT('',(-0.095,0.104525,0.0789526392459869));
#252=CARTESIAN_POINT('',(-0.095,0.104525,0.0694276392459869));
#253=CARTESIAN_POINT('',(0.,0.0447625,0.0789526392459869));
#254=CARTESIAN_POINT('',(0.0475,0.104525,0.0789526392459869));
#255=CARTESIAN_POINT('',(0.,0.104525,0.0789526392459869));
#256=CARTESIAN_POINT('',(0.095,0.104525,0.0789526392459869));
#257=CARTESIAN_POINT('',(-0.0475,0.104525,0.0789526392459869));
#258=CARTESIAN_POINT('',(-0.095002,-0.00227935847916654,0.078952639245987));
#259=CARTESIAN_POINT('',(0.095,-0.00227935847916652,0.0789526392459869));
#260=CARTESIAN_POINT('',(0.095,0.104525,0.0789526392459869));
#261=CARTESIAN_POINT('',(0.095,0.104525,0.0789526392459869));
#262=CARTESIAN_POINT('',(0.095,-0.0486396792395833,0.0442388196229935));
#263=CARTESIAN_POINT('',(0.095,-0.015,0.0694276392459869));
#264=CARTESIAN_POINT('',(0.095,0.104525,0.0694276392459869));
#265=CARTESIAN_POINT('',(0.095,0.104525,0.0789526392459869));
#266=CARTESIAN_POINT('',(0.,0.0447625,0.0694276392459869));
#267=CARTESIAN_POINT('',(0.,-0.015,0.0694276392459869));
#268=CARTESIAN_POINT('',(-0.095002,-0.0486396792395833,0.0442388196229935));
#269=CARTESIAN_POINT('',(-0.0475,0.104525,0.0769526392459869));
#270=CARTESIAN_POINT('',(0.,0.104525,0.0769526392459869));
#271=CARTESIAN_POINT('',(-0.0475,0.104525,0.0769526392459869));
#272=CARTESIAN_POINT('',(1.38777878078145E-17,0.0511228207604167,0.0769526392459869));
#273=CARTESIAN_POINT('',(0.0475,0.104525,0.0769526392459869));
#274=CARTESIAN_POINT('',(0.0475,0.104525,0.0769526392459869));
#275=CARTESIAN_POINT('',(1.38777878078145E-17,0.0511228207604167,0.0769526392459869));
#276=MECHANICAL_DESIGN_GEOMETRIC_PRESENTATION_REPRESENTATION('',(#161),
#277);
#277=(
GEOMETRIC_REPRESENTATION_CONTEXT(3)
GLOBAL_UNCERTAINTY_ASSIGNED_CONTEXT((#278))
GLOBAL_UNIT_ASSIGNED_CONTEXT((#281,#280,#279))
REPRESENTATION_CONTEXT('Part 5','TOP_LEVEL_ASSEMBLY_PART')
);
#278=UNCERTAINTY_MEASURE_WITH_UNIT(LENGTH_MEASURE(1.E-8),#281,
'DISTANCE_ACCURACY_VALUE','Maximum Tolerance applied to model');
#279=(
NAMED_UNIT(*)
SI_UNIT($,.STERADIAN.)
SOLID_ANGLE_UNIT()
);
#280=(
NAMED_UNIT(*)
PLANE_ANGLE_UNIT()
SI_UNIT($,.RADIAN.)
);
#281=(
LENGTH_UNIT()
NAMED_UNIT(*)
SI_UNIT($,.METRE.)
);
#282=PRODUCT_DEFINITION_SHAPE('','',#283);
#283=PRODUCT_DEFINITION('','',#285,#284);
#284=PRODUCT_DEFINITION_CONTEXT('',#291,'design');
#285=PRODUCT_DEFINITION_FORMATION_WITH_SPECIFIED_SOURCE('','',#287,
 .NOT_KNOWN.);
#286=PRODUCT_RELATED_PRODUCT_CATEGORY('','',(#287));
#287=PRODUCT('Part 5','Part 5','Part 5',(#289));
#288=PRODUCT_CATEGORY('','');
#289=PRODUCT_CONTEXT('',#291,'mechanical');
#290=APPLICATION_PROTOCOL_DEFINITION('international standard',
'ap242_managed_model_based_3d_engineering',2020,#291);
#291=APPLICATION_CONTEXT('managed model based 3d engineering');
ENDSEC;
END-ISO-10303-21;
