ISO-10303-21;
HEADER;
/* Generated by software containing ST-Developer
 * from STEP Tools, Inc. (www.steptools.com) 
 */
/* OPTION: using custom renumber hook */

FILE_DESCRIPTION(
/* description */ ('STEP AP242 Edition 2',
'CAx-IF Rec.Pracs.---Representation and Presentation of Product Manufa
cturing Information (PMI)---4.0---2014-10-13',
'CAx-IF Rec.Pracs.---3D Tessellated Geometry---0.4---2014-09-14','2;1',
'CAx-IF Rec.Pracs.---User Defined Attributes---1.5---2016-08-15'),
/* implementation_level */ '2;1');

FILE_NAME(
/* name */ 'Part Studio 1 - Part 4',
/* time_stamp */ '2026-09-11T06:37:05Z',
/* author */ (''),
/* organization */ (''),
/* preprocessor_version */ 'ST-DEVELOPER v20',
/* originating_system */ 'ONSHAPE BY PTC INC, 1.220',
/* authorisation */ '  ');

FILE_SCHEMA (('AP242_MANAGED_MODEL_BASED_3D_ENGINEERING_MIM_LF { 1 0 10303 442 3 1 4 }'));
ENDSEC;

DATA;
#10=SHAPE_REPRESENTATION_RELATIONSHIP('','',#277,#11);
#11=ADVANCED_BREP_SHAPE_REPRESENTATION('',(#275),#447);
#12=CIRCLE('',#281,0.0345);
#13=CIRCLE('',#282,0.0345);
#14=CIRCLE('',#289,0.0345);
#15=CIRCLE('',#290,0.0345);
#16=CIRCLE('',#294,0.0345);
#17=CIRCLE('',#295,0.0345);
#18=CYLINDRICAL_SURFACE('',#280,0.0345);
#19=CYLINDRICAL_SURFACE('',#288,0.0345);
#20=CYLINDRICAL_SURFACE('',#293,0.0345);
#21=ORIENTED_EDGE('',*,*,#93,.F.);
#22=ORIENTED_EDGE('',*,*,#94,.F.);
#23=ORIENTED_EDGE('',*,*,#95,.T.);
#24=ORIENTED_EDGE('',*,*,#96,.T.);
#25=ORIENTED_EDGE('',*,*,#97,.F.);
#26=ORIENTED_EDGE('',*,*,#98,.F.);
#27=ORIENTED_EDGE('',*,*,#99,.T.);
#28=ORIENTED_EDGE('',*,*,#94,.T.);
#29=ORIENTED_EDGE('',*,*,#100,.F.);
#30=ORIENTED_EDGE('',*,*,#101,.F.);
#31=ORIENTED_EDGE('',*,*,#102,.T.);
#32=ORIENTED_EDGE('',*,*,#98,.T.);
#33=ORIENTED_EDGE('',*,*,#103,.F.);
#34=ORIENTED_EDGE('',*,*,#104,.F.);
#35=ORIENTED_EDGE('',*,*,#105,.T.);
#36=ORIENTED_EDGE('',*,*,#101,.T.);
#37=ORIENTED_EDGE('',*,*,#106,.F.);
#38=ORIENTED_EDGE('',*,*,#107,.F.);
#39=ORIENTED_EDGE('',*,*,#108,.T.);
#40=ORIENTED_EDGE('',*,*,#104,.T.);
#41=ORIENTED_EDGE('',*,*,#109,.F.);
#42=ORIENTED_EDGE('',*,*,#110,.F.);
#43=ORIENTED_EDGE('',*,*,#111,.T.);
#44=ORIENTED_EDGE('',*,*,#107,.T.);
#45=ORIENTED_EDGE('',*,*,#112,.F.);
#46=ORIENTED_EDGE('',*,*,#113,.F.);
#47=ORIENTED_EDGE('',*,*,#114,.T.);
#48=ORIENTED_EDGE('',*,*,#110,.T.);
#49=ORIENTED_EDGE('',*,*,#115,.F.);
#50=ORIENTED_EDGE('',*,*,#116,.F.);
#51=ORIENTED_EDGE('',*,*,#117,.T.);
#52=ORIENTED_EDGE('',*,*,#113,.T.);
#53=ORIENTED_EDGE('',*,*,#118,.F.);
#54=ORIENTED_EDGE('',*,*,#119,.F.);
#55=ORIENTED_EDGE('',*,*,#120,.T.);
#56=ORIENTED_EDGE('',*,*,#116,.T.);
#57=ORIENTED_EDGE('',*,*,#121,.F.);
#58=ORIENTED_EDGE('',*,*,#122,.F.);
#59=ORIENTED_EDGE('',*,*,#123,.T.);
#60=ORIENTED_EDGE('',*,*,#119,.T.);
#61=ORIENTED_EDGE('',*,*,#124,.F.);
#62=ORIENTED_EDGE('',*,*,#125,.F.);
#63=ORIENTED_EDGE('',*,*,#126,.T.);
#64=ORIENTED_EDGE('',*,*,#122,.T.);
#65=ORIENTED_EDGE('',*,*,#127,.F.);
#66=ORIENTED_EDGE('',*,*,#96,.F.);
#67=ORIENTED_EDGE('',*,*,#128,.T.);
#68=ORIENTED_EDGE('',*,*,#125,.T.);
#69=ORIENTED_EDGE('',*,*,#95,.F.);
#70=ORIENTED_EDGE('',*,*,#99,.F.);
#71=ORIENTED_EDGE('',*,*,#102,.F.);
#72=ORIENTED_EDGE('',*,*,#105,.F.);
#73=ORIENTED_EDGE('',*,*,#108,.F.);
#74=ORIENTED_EDGE('',*,*,#111,.F.);
#75=ORIENTED_EDGE('',*,*,#114,.F.);
#76=ORIENTED_EDGE('',*,*,#117,.F.);
#77=ORIENTED_EDGE('',*,*,#120,.F.);
#78=ORIENTED_EDGE('',*,*,#123,.F.);
#79=ORIENTED_EDGE('',*,*,#126,.F.);
#80=ORIENTED_EDGE('',*,*,#128,.F.);
#81=ORIENTED_EDGE('',*,*,#93,.T.);
#82=ORIENTED_EDGE('',*,*,#127,.T.);
#83=ORIENTED_EDGE('',*,*,#124,.T.);
#84=ORIENTED_EDGE('',*,*,#121,.T.);
#85=ORIENTED_EDGE('',*,*,#118,.T.);
#86=ORIENTED_EDGE('',*,*,#115,.T.);
#87=ORIENTED_EDGE('',*,*,#112,.T.);
#88=ORIENTED_EDGE('',*,*,#109,.T.);
#89=ORIENTED_EDGE('',*,*,#106,.T.);
#90=ORIENTED_EDGE('',*,*,#103,.T.);
#91=ORIENTED_EDGE('',*,*,#100,.T.);
#92=ORIENTED_EDGE('',*,*,#97,.T.);
#93=EDGE_CURVE('',#129,#130,#153,.T.);
#94=EDGE_CURVE('',#131,#129,#154,.T.);
#95=EDGE_CURVE('',#131,#132,#155,.T.);
#96=EDGE_CURVE('',#132,#130,#156,.T.);
#97=EDGE_CURVE('',#133,#129,#12,.T.);
#98=EDGE_CURVE('',#134,#133,#157,.T.);
#99=EDGE_CURVE('',#134,#131,#13,.T.);
#100=EDGE_CURVE('',#135,#133,#158,.T.);
#101=EDGE_CURVE('',#136,#135,#159,.T.);
#102=EDGE_CURVE('',#136,#134,#160,.T.);
#103=EDGE_CURVE('',#137,#135,#161,.T.);
#104=EDGE_CURVE('',#138,#137,#162,.T.);
#105=EDGE_CURVE('',#138,#136,#163,.T.);
#106=EDGE_CURVE('',#139,#137,#164,.T.);
#107=EDGE_CURVE('',#140,#139,#165,.T.);
#108=EDGE_CURVE('',#140,#138,#166,.T.);
#109=EDGE_CURVE('',#141,#139,#167,.T.);
#110=EDGE_CURVE('',#142,#141,#168,.T.);
#111=EDGE_CURVE('',#142,#140,#169,.T.);
#112=EDGE_CURVE('',#143,#141,#170,.T.);
#113=EDGE_CURVE('',#144,#143,#171,.T.);
#114=EDGE_CURVE('',#144,#142,#172,.T.);
#115=EDGE_CURVE('',#145,#143,#14,.T.);
#116=EDGE_CURVE('',#146,#145,#173,.T.);
#117=EDGE_CURVE('',#146,#144,#15,.T.);
#118=EDGE_CURVE('',#147,#145,#174,.T.);
#119=EDGE_CURVE('',#148,#147,#175,.T.);
#120=EDGE_CURVE('',#148,#146,#176,.T.);
#121=EDGE_CURVE('',#149,#147,#177,.T.);
#122=EDGE_CURVE('',#150,#149,#178,.T.);
#123=EDGE_CURVE('',#150,#148,#179,.T.);
#124=EDGE_CURVE('',#151,#149,#16,.T.);
#125=EDGE_CURVE('',#152,#151,#180,.T.);
#126=EDGE_CURVE('',#152,#150,#17,.T.);
#127=EDGE_CURVE('',#130,#151,#181,.T.);
#128=EDGE_CURVE('',#132,#152,#182,.T.);
#129=VERTEX_POINT('',#374);
#130=VERTEX_POINT('',#375);
#131=VERTEX_POINT('',#377);
#132=VERTEX_POINT('',#379);
#133=VERTEX_POINT('',#383);
#134=VERTEX_POINT('',#385);
#135=VERTEX_POINT('',#389);
#136=VERTEX_POINT('',#391);
#137=VERTEX_POINT('',#395);
#138=VERTEX_POINT('',#397);
#139=VERTEX_POINT('',#401);
#140=VERTEX_POINT('',#403);
#141=VERTEX_POINT('',#407);
#142=VERTEX_POINT('',#409);
#143=VERTEX_POINT('',#413);
#144=VERTEX_POINT('',#415);
#145=VERTEX_POINT('',#419);
#146=VERTEX_POINT('',#421);
#147=VERTEX_POINT('',#425);
#148=VERTEX_POINT('',#427);
#149=VERTEX_POINT('',#431);
#150=VERTEX_POINT('',#433);
#151=VERTEX_POINT('',#437);
#152=VERTEX_POINT('',#439);
#153=LINE('',#373,#183);
#154=LINE('',#376,#184);
#155=LINE('',#378,#185);
#156=LINE('',#380,#186);
#157=LINE('',#384,#187);
#158=LINE('',#388,#188);
#159=LINE('',#390,#189);
#160=LINE('',#392,#190);
#161=LINE('',#394,#191);
#162=LINE('',#396,#192);
#163=LINE('',#398,#193);
#164=LINE('',#400,#194);
#165=LINE('',#402,#195);
#166=LINE('',#404,#196);
#167=LINE('',#406,#197);
#168=LINE('',#408,#198);
#169=LINE('',#410,#199);
#170=LINE('',#412,#200);
#171=LINE('',#414,#201);
#172=LINE('',#416,#202);
#173=LINE('',#420,#203);
#174=LINE('',#424,#204);
#175=LINE('',#426,#205);
#176=LINE('',#428,#206);
#177=LINE('',#430,#207);
#178=LINE('',#432,#208);
#179=LINE('',#434,#209);
#180=LINE('',#438,#210);
#181=LINE('',#442,#211);
#182=LINE('',#443,#212);
#183=VECTOR('',#303,1.);
#184=VECTOR('',#304,1.);
#185=VECTOR('',#305,1.);
#186=VECTOR('',#306,1.);
#187=VECTOR('',#311,1.);
#188=VECTOR('',#316,1.);
#189=VECTOR('',#317,1.);
#190=VECTOR('',#318,1.);
#191=VECTOR('',#321,1.);
#192=VECTOR('',#322,1.);
#193=VECTOR('',#323,1.);
#194=VECTOR('',#326,1.);
#195=VECTOR('',#327,1.);
#196=VECTOR('',#328,1.);
#197=VECTOR('',#331,1.);
#198=VECTOR('',#332,1.);
#199=VECTOR('',#333,1.);
#200=VECTOR('',#336,1.);
#201=VECTOR('',#337,1.);
#202=VECTOR('',#338,1.);
#203=VECTOR('',#343,1.);
#204=VECTOR('',#348,1.);
#205=VECTOR('',#349,1.);
#206=VECTOR('',#350,1.);
#207=VECTOR('',#353,1.);
#208=VECTOR('',#354,1.);
#209=VECTOR('',#355,1.);
#210=VECTOR('',#360,1.);
#211=VECTOR('',#365,1.);
#212=VECTOR('',#366,1.);
#213=EDGE_LOOP('',(#21,#22,#23,#24));
#214=EDGE_LOOP('',(#25,#26,#27,#28));
#215=EDGE_LOOP('',(#29,#30,#31,#32));
#216=EDGE_LOOP('',(#33,#34,#35,#36));
#217=EDGE_LOOP('',(#37,#38,#39,#40));
#218=EDGE_LOOP('',(#41,#42,#43,#44));
#219=EDGE_LOOP('',(#45,#46,#47,#48));
#220=EDGE_LOOP('',(#49,#50,#51,#52));
#221=EDGE_LOOP('',(#53,#54,#55,#56));
#222=EDGE_LOOP('',(#57,#58,#59,#60));
#223=EDGE_LOOP('',(#61,#62,#63,#64));
#224=EDGE_LOOP('',(#65,#66,#67,#68));
#225=EDGE_LOOP('',(#69,#70,#71,#72,#73,#74,#75,#76,#77,#78,#79,#80));
#226=EDGE_LOOP('',(#81,#82,#83,#84,#85,#86,#87,#88,#89,#90,#91,#92));
#227=FACE_BOUND('',#213,.T.);
#228=FACE_BOUND('',#214,.T.);
#229=FACE_BOUND('',#215,.T.);
#230=FACE_BOUND('',#216,.T.);
#231=FACE_BOUND('',#217,.T.);
#232=FACE_BOUND('',#218,.T.);
#233=FACE_BOUND('',#219,.T.);
#234=FACE_BOUND('',#220,.T.);
#235=FACE_BOUND('',#221,.T.);
#236=FACE_BOUND('',#222,.T.);
#237=FACE_BOUND('',#223,.T.);
#238=FACE_BOUND('',#224,.T.);
#239=FACE_BOUND('',#225,.T.);
#240=FACE_BOUND('',#226,.T.);
#241=PLANE('',#279);
#242=PLANE('',#283);
#243=PLANE('',#284);
#244=PLANE('',#285);
#245=PLANE('',#286);
#246=PLANE('',#287);
#247=PLANE('',#291);
#248=PLANE('',#292);
#249=PLANE('',#296);
#250=PLANE('',#297);
#251=PLANE('',#298);
#252=ADVANCED_FACE('',(#227),#241,.F.);
#253=ADVANCED_FACE('',(#228),#18,.F.);
#254=ADVANCED_FACE('',(#229),#242,.F.);
#255=ADVANCED_FACE('',(#230),#243,.F.);
#256=ADVANCED_FACE('',(#231),#244,.F.);
#257=ADVANCED_FACE('',(#232),#245,.F.);
#258=ADVANCED_FACE('',(#233),#246,.F.);
#259=ADVANCED_FACE('',(#234),#19,.F.);
#260=ADVANCED_FACE('',(#235),#247,.F.);
#261=ADVANCED_FACE('',(#236),#248,.F.);
#262=ADVANCED_FACE('',(#237),#20,.F.);
#263=ADVANCED_FACE('',(#238),#249,.F.);
#264=ADVANCED_FACE('',(#239),#250,.F.);
#265=ADVANCED_FACE('',(#240),#251,.T.);
#266=CLOSED_SHELL('',(#252,#253,#254,#255,#256,#257,#258,#259,#260,#261,
#262,#263,#264,#265));
#267=STYLED_ITEM('',(#268),#275);
#268=PRESENTATION_STYLE_ASSIGNMENT((#269));
#269=SURFACE_STYLE_USAGE(.BOTH.,#270);
#270=SURFACE_SIDE_STYLE('',(#271));
#271=SURFACE_STYLE_FILL_AREA(#272);
#272=FILL_AREA_STYLE('',(#273));
#273=FILL_AREA_STYLE_COLOUR('',#274);
#274=COLOUR_RGB('',0.917647058823529,0.917647058823529,0.917647058823529);
#275=MANIFOLD_SOLID_BREP('Part 4',#266);
#276=SHAPE_DEFINITION_REPRESENTATION(#452,#277);
#277=SHAPE_REPRESENTATION('Part 4',(#278),#447);
#278=AXIS2_PLACEMENT_3D('',#371,#299,#300);
#279=AXIS2_PLACEMENT_3D('',#372,#301,#302);
#280=AXIS2_PLACEMENT_3D('',#381,#307,#308);
#281=AXIS2_PLACEMENT_3D('',#382,#309,#310);
#282=AXIS2_PLACEMENT_3D('',#386,#312,#313);
#283=AXIS2_PLACEMENT_3D('',#387,#314,#315);
#284=AXIS2_PLACEMENT_3D('',#393,#319,#320);
#285=AXIS2_PLACEMENT_3D('',#399,#324,#325);
#286=AXIS2_PLACEMENT_3D('',#405,#329,#330);
#287=AXIS2_PLACEMENT_3D('',#411,#334,#335);
#288=AXIS2_PLACEMENT_3D('',#417,#339,#340);
#289=AXIS2_PLACEMENT_3D('',#418,#341,#342);
#290=AXIS2_PLACEMENT_3D('',#422,#344,#345);
#291=AXIS2_PLACEMENT_3D('',#423,#346,#347);
#292=AXIS2_PLACEMENT_3D('',#429,#351,#352);
#293=AXIS2_PLACEMENT_3D('',#435,#356,#357);
#294=AXIS2_PLACEMENT_3D('',#436,#358,#359);
#295=AXIS2_PLACEMENT_3D('',#440,#361,#362);
#296=AXIS2_PLACEMENT_3D('',#441,#363,#364);
#297=AXIS2_PLACEMENT_3D('',#444,#367,#368);
#298=AXIS2_PLACEMENT_3D('',#445,#369,#370);
#299=DIRECTION('',(0.,0.,1.));
#300=DIRECTION('',(1.,0.,0.));
#301=DIRECTION('',(-1.25595325253488E-16,1.,0.));
#302=DIRECTION('',(1.,1.25595325253488E-16,0.));
#303=DIRECTION('',(0.,0.,1.));
#304=DIRECTION('',(-1.,-1.25595325253488E-16,0.));
#305=DIRECTION('',(0.,0.,1.));
#306=DIRECTION('',(-1.,-1.25595325253488E-16,0.));
#307=DIRECTION('',(-1.,-1.25595325253488E-16,0.));
#308=DIRECTION('',(-1.25595325253488E-16,1.,0.));
#309=DIRECTION('',(1.,1.25595325253488E-16,0.));
#310=DIRECTION('',(-1.25595325253488E-16,1.,0.));
#311=DIRECTION('',(-1.,-1.25595325253488E-16,0.));
#312=DIRECTION('',(1.,1.25595325253488E-16,0.));
#313=DIRECTION('',(-1.25595325253488E-16,1.,0.));
#314=DIRECTION('',(0.,0.,1.));
#315=DIRECTION('',(-1.,0.,0.));
#316=DIRECTION('',(1.25595325253488E-16,-1.,0.));
#317=DIRECTION('',(-1.,-1.25595325253488E-16,0.));
#318=DIRECTION('',(1.25595325253488E-16,-1.,0.));
#319=DIRECTION('',(1.25595325253488E-16,-1.,-4.6334478689081E-16));
#320=DIRECTION('',(0.,4.63344786890811E-16,-1.));
#321=DIRECTION('',(-5.81939392140595E-32,4.6334478689081E-16,-1.));
#322=DIRECTION('',(-1.,-1.25595325253488E-16,0.));
#323=DIRECTION('',(-5.81939392140595E-32,4.6334478689081E-16,-1.));
#324=DIRECTION('',(1.58453206683759E-32,-1.26161707343768E-16,-1.));
#325=DIRECTION('',(0.,1.,-1.26161707343768E-16));
#326=DIRECTION('',(-1.25595325253488E-16,1.,-1.26161707343768E-16));
#327=DIRECTION('',(-1.,-1.25595325253488E-16,0.));
#328=DIRECTION('',(-1.25595325253488E-16,1.,-1.26161707343768E-16));
#329=DIRECTION('',(-7.52788669921186E-17,0.599376344941054,-0.800467361686348));
#330=DIRECTION('',(0.,0.800467361686348,0.599376344941054));
#331=DIRECTION('',(-1.00534958645799E-16,0.800467361686349,0.599376344941054));
#332=DIRECTION('',(-1.,-1.25595325253488E-16,0.));
#333=DIRECTION('',(-1.00534958645799E-16,0.800467361686349,0.599376344941054));
#334=DIRECTION('',(0.,0.,1.));
#335=DIRECTION('',(-1.,0.,0.));
#336=DIRECTION('',(1.25595325253488E-16,-1.,0.));
#337=DIRECTION('',(-1.,-1.25595325253488E-16,0.));
#338=DIRECTION('',(1.25595325253488E-16,-1.,0.));
#339=DIRECTION('',(-1.,-1.25595325253488E-16,0.));
#340=DIRECTION('',(-1.25595325253488E-16,1.,0.));
#341=DIRECTION('',(1.,1.25595325253488E-16,0.));
#342=DIRECTION('',(-1.25595325253488E-16,1.,0.));
#343=DIRECTION('',(-1.,-1.25595325253488E-16,0.));
#344=DIRECTION('',(1.,1.25595325253488E-16,0.));
#345=DIRECTION('',(-1.25595325253488E-16,1.,0.));
#346=DIRECTION('',(1.25595325253488E-16,-1.,0.));
#347=DIRECTION('',(-1.,-1.25595325253488E-16,0.));
#348=DIRECTION('',(0.,0.,-1.));
#349=DIRECTION('',(-1.,-1.25595325253488E-16,0.));
#350=DIRECTION('',(0.,0.,-1.));
#351=DIRECTION('',(0.,0.,1.));
#352=DIRECTION('',(-1.,0.,0.));
#353=DIRECTION('',(1.25595325253488E-16,-1.,0.));
#354=DIRECTION('',(-1.,-1.25595325253488E-16,0.));
#355=DIRECTION('',(1.25595325253488E-16,-1.,0.));
#356=DIRECTION('',(-1.,-1.25595325253488E-16,0.));
#357=DIRECTION('',(-1.25595325253488E-16,1.,0.));
#358=DIRECTION('',(1.,1.25595325253488E-16,0.));
#359=DIRECTION('',(-1.25595325253488E-16,1.,0.));
#360=DIRECTION('',(-1.,-1.25595325253488E-16,0.));
#361=DIRECTION('',(1.,1.25595325253488E-16,0.));
#362=DIRECTION('',(-1.25595325253488E-16,1.,0.));
#363=DIRECTION('',(0.,0.,1.));
#364=DIRECTION('',(-1.,0.,0.));
#365=DIRECTION('',(1.25595325253488E-16,-1.,0.));
#366=DIRECTION('',(1.25595325253488E-16,-1.,0.));
#367=DIRECTION('',(-1.,-1.25595325253488E-16,0.));
#368=DIRECTION('',(-1.25595325253488E-16,1.,0.));
#369=DIRECTION('',(-1.,-1.25595325253488E-16,0.));
#370=DIRECTION('',(-1.25595325253488E-16,1.,0.));
#371=CARTESIAN_POINT('',(0.,0.,0.));
#372=CARTESIAN_POINT('',(-0.085475,0.0754960537329316,0.0464661972569465));
#373=CARTESIAN_POINT('',(-0.095,0.0754960537329316,0.0464661972569465));
#374=CARTESIAN_POINT('',(-0.095,0.0754960537329316,0.0434073945138931));
#375=CARTESIAN_POINT('',(-0.095,0.0754960537329316,0.049525));
#376=CARTESIAN_POINT('',(-0.085475,0.0754960537329316,0.0434073945138931));
#377=CARTESIAN_POINT('',(-0.085475,0.0754960537329316,0.0434073945138931));
#378=CARTESIAN_POINT('',(-0.085475,0.0754960537329316,0.0464661972569465));
#379=CARTESIAN_POINT('',(-0.085475,0.0754960537329316,0.049525));
#380=CARTESIAN_POINT('',(-0.085475,0.0754960537329316,0.049525));
#381=CARTESIAN_POINT('',(-0.085475,0.0463819466531277,0.0248974304689332));
#382=CARTESIAN_POINT('',(-0.095,0.0463819466531277,0.0248974304689332));
#383=CARTESIAN_POINT('',(-0.095,0.0772678395733237,0.009525));
#384=CARTESIAN_POINT('',(-0.085475,0.0772678395733237,0.009525));
#385=CARTESIAN_POINT('',(-0.085475,0.0772678395733237,0.009525));
#386=CARTESIAN_POINT('',(-0.085475,0.0463819466531277,0.0248974304689332));
#387=CARTESIAN_POINT('',(-0.085475,0.0861339197866619,0.009525));
#388=CARTESIAN_POINT('',(-0.095,0.0861339197866619,0.009525));
#389=CARTESIAN_POINT('',(-0.095,0.095,0.009525));
#390=CARTESIAN_POINT('',(-0.085475,0.095,0.009525));
#391=CARTESIAN_POINT('',(-0.085475,0.095,0.009525));
#392=CARTESIAN_POINT('',(-0.085475,0.0861339197866619,0.009525));
#393=CARTESIAN_POINT('',(-0.085475,0.095,0.0394763196229934));
#394=CARTESIAN_POINT('',(-0.095,0.095,0.0394763196229934));
#395=CARTESIAN_POINT('',(-0.095,0.095,0.0694276392459869));
#396=CARTESIAN_POINT('',(-0.085475,0.095,0.0694276392459869));
#397=CARTESIAN_POINT('',(-0.085475,0.095,0.0694276392459869));
#398=CARTESIAN_POINT('',(-0.085475,0.095,0.0394763196229934));
#399=CARTESIAN_POINT('',(-0.085475,0.04,0.0694276392459869));
#400=CARTESIAN_POINT('',(-0.095,0.04,0.0694276392459869));
#401=CARTESIAN_POINT('',(-0.095,-0.015,0.069427639245987));
#402=CARTESIAN_POINT('',(-0.085475,-0.015,0.069427639245987));
#403=CARTESIAN_POINT('',(-0.085475,-0.015,0.069427639245987));
#404=CARTESIAN_POINT('',(-0.085475,0.04,0.0694276392459869));
#405=CARTESIAN_POINT('',(-0.085475,-0.055,0.0394763196229934));
#406=CARTESIAN_POINT('',(-0.095,-0.055,0.0394763196229934));
#407=CARTESIAN_POINT('',(-0.095,-0.095,0.009525));
#408=CARTESIAN_POINT('',(-0.085475,-0.095,0.009525));
#409=CARTESIAN_POINT('',(-0.085475,-0.095,0.009525));
#410=CARTESIAN_POINT('',(-0.085475,-0.055,0.0394763196229934));
#411=CARTESIAN_POINT('',(-0.085475,-0.0397519731335342,0.009525));
#412=CARTESIAN_POINT('',(-0.095,-0.0397519731335342,0.009525));
#413=CARTESIAN_POINT('',(-0.095,0.0154960537329316,0.009525));
#414=CARTESIAN_POINT('',(-0.085475,0.0154960537329316,0.009525));
#415=CARTESIAN_POINT('',(-0.085475,0.0154960537329316,0.009525));
#416=CARTESIAN_POINT('',(-0.085475,-0.0397519731335342,0.009525));
#417=CARTESIAN_POINT('',(-0.085475,0.0463819466531277,0.0248974304689331));
#418=CARTESIAN_POINT('',(-0.095,0.0463819466531277,0.0248974304689331));
#419=CARTESIAN_POINT('',(-0.095,0.0154960537329316,0.0402698609378663));
#420=CARTESIAN_POINT('',(-0.085475,0.0154960537329316,0.0402698609378663));
#421=CARTESIAN_POINT('',(-0.085475,0.0154960537329316,0.0402698609378663));
#422=CARTESIAN_POINT('',(-0.085475,0.0463819466531277,0.0248974304689331));
#423=CARTESIAN_POINT('',(-0.085475,0.0154960537329316,0.0448974304689331));
#424=CARTESIAN_POINT('',(-0.095,0.0154960537329316,0.0448974304689331));
#425=CARTESIAN_POINT('',(-0.095,0.0154960537329316,0.049525));
#426=CARTESIAN_POINT('',(-0.085475,0.0154960537329316,0.049525));
#427=CARTESIAN_POINT('',(-0.085475,0.0154960537329316,0.049525));
#428=CARTESIAN_POINT('',(-0.085475,0.0154960537329316,0.0448974304689331));
#429=CARTESIAN_POINT('',(-0.085475,0.0188587185428314,0.049525));
#430=CARTESIAN_POINT('',(-0.095,0.0188587185428314,0.049525));
#431=CARTESIAN_POINT('',(-0.095,0.0222213833527312,0.049525));
#432=CARTESIAN_POINT('',(-0.085475,0.0222213833527312,0.049525));
#433=CARTESIAN_POINT('',(-0.085475,0.0222213833527312,0.049525));
#434=CARTESIAN_POINT('',(-0.085475,0.0188587185428314,0.049525));
#435=CARTESIAN_POINT('',(-0.085475,0.0463819466531277,0.0248974304689331));
#436=CARTESIAN_POINT('',(-0.095,0.0463819466531277,0.0248974304689331));
#437=CARTESIAN_POINT('',(-0.095,0.0705425099535242,0.049525));
#438=CARTESIAN_POINT('',(-0.085475,0.0705425099535242,0.049525));
#439=CARTESIAN_POINT('',(-0.085475,0.0705425099535242,0.049525));
#440=CARTESIAN_POINT('',(-0.085475,0.0463819466531277,0.0248974304689331));
#441=CARTESIAN_POINT('',(-0.085475,0.0730192818432279,0.049525));
#442=CARTESIAN_POINT('',(-0.095,0.0730192818432279,0.049525));
#443=CARTESIAN_POINT('',(-0.085475,0.0730192818432279,0.049525));
#444=CARTESIAN_POINT('',(-0.085475,3.14252738177255E-18,0.0299125348574601));
#445=CARTESIAN_POINT('',(-0.095,1.94623190873308E-18,0.0299125348574601));
#446=MECHANICAL_DESIGN_GEOMETRIC_PRESENTATION_REPRESENTATION('',(#267),
#447);
#447=(
GEOMETRIC_REPRESENTATION_CONTEXT(3)
GLOBAL_UNCERTAINTY_ASSIGNED_CONTEXT((#448))
GLOBAL_UNIT_ASSIGNED_CONTEXT((#451,#450,#449))
REPRESENTATION_CONTEXT('Part 4','TOP_LEVEL_ASSEMBLY_PART')
);
#448=UNCERTAINTY_MEASURE_WITH_UNIT(LENGTH_MEASURE(1.E-8),#451,
'DISTANCE_ACCURACY_VALUE','Maximum Tolerance applied to model');
#449=(
NAMED_UNIT(*)
SI_UNIT($,.STERADIAN.)
SOLID_ANGLE_UNIT()
);
#450=(
NAMED_UNIT(*)
PLANE_ANGLE_UNIT()
SI_UNIT($,.RADIAN.)
);
#451=(
LENGTH_UNIT()
NAMED_UNIT(*)
SI_UNIT($,.METRE.)
);
#452=PRODUCT_DEFINITION_SHAPE('','',#453);
#453=PRODUCT_DEFINITION('','',#455,#454);
#454=PRODUCT_DEFINITION_CONTEXT('',#461,'design');
#455=PRODUCT_DEFINITION_FORMATION_WITH_SPECIFIED_SOURCE('','',#457,
 .NOT_KNOWN.);
#456=PRODUCT_RELATED_PRODUCT_CATEGORY('','',(#457));
#457=PRODUCT('Part 4','Part 4','Part 4',(#459));
#458=PRODUCT_CATEGORY('','');
#459=PRODUCT_CONTEXT('',#461,'mechanical');
#460=APPLICATION_PROTOCOL_DEFINITION('international standard',
'ap242_managed_model_based_3d_engineering',2020,#461);
#461=APPLICATION_CONTEXT('managed model based 3d engineering');
ENDSEC;
END-ISO-10303-21;
